<svg width="22" height="22" viewBox="0 0 22 22" fill="none" xmlns="http://www.w3.org/2000/svg">
<path d="M10.082 7.33398C10.082 6.82772 10.4924 6.41732 10.9987 6.41732C11.505 6.41732 11.9154 6.82772 11.9154 7.33398C11.9154 7.84025 11.505 8.25065 10.9987 8.25065C10.4924 8.25065 10.082 7.84025 10.082 7.33398ZM10.082 11.0007C10.082 10.4944 10.4924 10.084 10.9987 10.084C11.505 10.084 11.9154 10.4944 11.9154 11.0007V14.6673C11.9154 15.1736 11.505 15.584 10.9987 15.584C10.4924 15.584 10.082 15.1736 10.082 14.6673V11.0007ZM10.9987 1.83398C5.9387 1.83398 1.83203 5.94065 1.83203 11.0007C1.83203 16.0607 5.9387 20.1673 10.9987 20.1673C16.0587 20.1673 20.1654 16.0607 20.1654 11.0007C20.1654 5.94065 16.0587 1.83398 10.9987 1.83398ZM10.9987 18.334C6.9562 18.334 3.66536 15.0431 3.66536 11.0007C3.66536 6.95815 6.9562 3.66732 10.9987 3.66732C15.0412 3.66732 18.332 6.95815 18.332 11.0007C18.332 15.0431 15.0412 18.334 10.9987 18.334Z" fill="#FFB900"/>
</svg>
