<svg width="138" height="51" viewBox="0 0 138 51" fill="none" xmlns="http://www.w3.org/2000/svg">
<rect x="0.5" y="1" width="137" height="49" rx="9.5" fill="black"/>
<rect x="0.5" y="1" width="137" height="49" rx="9.5" stroke="#E1E1FE"/>
<path d="M31.7045 26.2631C31.729 24.4104 32.7481 22.6574 34.3648 21.687C33.3449 20.2649 31.6366 19.3632 29.8592 19.3089C27.9636 19.1147 26.1258 20.4164 25.1598 20.4164C24.1751 20.4164 22.6878 19.3282 21.0862 19.3604C18.9986 19.4262 17.0524 20.585 16.0368 22.3669C13.8535 26.0573 15.482 31.4809 17.5734 34.464C18.6198 35.9247 19.8427 37.5564 21.4428 37.4985C23.0086 37.4351 23.5935 36.5237 25.4836 36.5237C27.3561 36.5237 27.9048 37.4985 29.5374 37.4617C31.2176 37.4351 32.2762 35.9945 33.2859 34.52C34.0377 33.4792 34.6162 32.3288 35 31.1116C33.0254 30.2962 31.7068 28.3562 31.7045 26.2631Z" fill="white"/>
<path d="M28.6208 17.3471C29.5369 16.2734 29.9882 14.8934 29.8789 13.5C28.4793 13.6435 27.1864 14.2966 26.2579 15.3291C25.35 16.3379 24.8775 17.6937 24.9668 19.0338C26.3669 19.0479 27.7434 18.4125 28.6208 17.3471Z" fill="white"/>
<path d="M43 14.2775V19.9179H45.1889C46.9955 19.9179 48.0416 18.8821 48.0416 17.0801C48.0416 15.3055 46.9871 14.2775 45.1889 14.2775H43ZM43.9411 15.0749H45.0839C46.3401 15.0749 47.0837 15.8176 47.0837 17.0919C47.0837 18.3857 46.3527 19.1205 45.0839 19.1205H43.9411V15.0749Z" fill="white"/>
<path d="M51.2455 20C52.5815 20 53.4008 19.1674 53.4008 17.7876C53.4008 16.4156 52.5773 15.5792 51.2455 15.5792C49.9095 15.5792 49.086 16.4156 49.086 17.7876C49.086 19.1674 49.9053 20 51.2455 20ZM51.2455 19.2534C50.4599 19.2534 50.0187 18.7179 50.0187 17.7876C50.0187 16.8651 50.4599 16.3257 51.2455 16.3257C52.027 16.3257 52.4723 16.8651 52.4723 17.7876C52.4723 18.714 52.027 19.2534 51.2455 19.2534Z" fill="white"/>
<path d="M60.3775 15.6612H59.4742L58.6592 18.9094H58.5878L57.6467 15.6612H56.7812L55.8401 18.9094H55.7729L54.9536 15.6612H54.0377L55.2981 19.9179H56.2266L57.1677 16.7831H57.2391L58.1844 19.9179H59.1213L60.3775 15.6612Z" fill="white"/>
<path d="M61.4178 19.9179H62.3211V17.428C62.3211 16.7635 62.7454 16.3492 63.4134 16.3492C64.0814 16.3492 64.4007 16.6893 64.4007 17.3733V19.9179H65.304V17.1622C65.304 16.1498 64.741 15.5792 63.7201 15.5792C63.0311 15.5792 62.5773 15.8645 62.3547 16.3375H62.2875V15.6612H61.4178V19.9179Z" fill="white"/>
<path d="M66.7266 19.9179H67.6299V14H66.7266V19.9179Z" fill="white"/>
<path d="M71.0271 20C72.3631 20 73.1823 19.1674 73.1823 17.7876C73.1823 16.4156 72.3589 15.5792 71.0271 15.5792C69.691 15.5792 68.8676 16.4156 68.8676 17.7876C68.8676 19.1674 69.6868 20 71.0271 20ZM71.0271 19.2534C70.2414 19.2534 69.8003 18.7179 69.8003 17.7876C69.8003 16.8651 70.2414 16.3257 71.0271 16.3257C71.8085 16.3257 72.2538 16.8651 72.2538 17.7876C72.2538 18.714 71.8085 19.2534 71.0271 19.2534Z" fill="white"/>
<path d="M75.8737 19.2808C75.3822 19.2808 75.025 19.058 75.025 18.6749C75.025 18.2997 75.3107 18.1003 75.9409 18.0612L77.0585 17.9948V18.3505C77.0585 18.8782 76.5543 19.2808 75.8737 19.2808ZM75.6426 19.9883C76.2434 19.9883 76.7434 19.7459 77.0165 19.3199H77.0879V19.9179H77.9576V17.0098C77.9576 16.1107 77.3106 15.5792 76.1636 15.5792C75.1259 15.5792 74.3864 16.0482 74.294 16.7792H75.1679C75.2687 16.4782 75.6174 16.3062 76.1216 16.3062C76.7392 16.3062 77.0585 16.5603 77.0585 17.0098V17.3772L75.8191 17.4436C74.7309 17.5062 74.1176 17.9479 74.1176 18.714C74.1176 19.4919 74.7604 19.9883 75.6426 19.9883Z" fill="white"/>
<path d="M81.0229 19.9883C81.6531 19.9883 82.1866 19.7107 82.4597 19.2456H82.5311V19.9179H83.3966V14H82.4933V16.3375H82.4261C82.1782 15.8684 81.6489 15.5909 81.0229 15.5909C79.8675 15.5909 79.1239 16.443 79.1239 17.7876C79.1239 19.1362 79.8591 19.9883 81.0229 19.9883ZM81.2791 16.3453C82.0354 16.3453 82.5101 16.9042 82.5101 17.7915C82.5101 18.6827 82.0396 19.2339 81.2791 19.2339C80.5145 19.2339 80.0565 18.6906 80.0565 17.7876C80.0565 16.8925 80.5187 16.3453 81.2791 16.3453Z" fill="white"/>
<path d="M89.2541 20C90.5901 20 91.4094 19.1674 91.4094 17.7876C91.4094 16.4156 90.5859 15.5792 89.2541 15.5792C87.9181 15.5792 87.0946 16.4156 87.0946 17.7876C87.0946 19.1674 87.9139 20 89.2541 20ZM89.2541 19.2534C88.4684 19.2534 88.0273 18.7179 88.0273 17.7876C88.0273 16.8651 88.4684 16.3257 89.2541 16.3257C90.0355 16.3257 90.4809 16.8651 90.4809 17.7876C90.4809 18.714 90.0355 19.2534 89.2541 19.2534Z" fill="white"/>
<path d="M92.6051 19.9179H93.5084V17.428C93.5084 16.7635 93.9327 16.3492 94.6007 16.3492C95.2687 16.3492 95.588 16.6893 95.588 17.3733V19.9179H96.4913V17.1622C96.4913 16.1498 95.9283 15.5792 94.9074 15.5792C94.2184 15.5792 93.7646 15.8645 93.542 16.3375H93.4748V15.6612H92.6051V19.9179Z" fill="white"/>
<path d="M100.651 14.602V15.6808H99.9246V16.3883H100.651V18.7922C100.651 19.613 101.051 19.9414 102.055 19.9414C102.231 19.9414 102.399 19.9218 102.546 19.8984V19.1987C102.42 19.2104 102.34 19.2182 102.202 19.2182C101.752 19.2182 101.555 19.0228 101.555 18.5772V16.3883H102.546V15.6808H101.555V14.602H100.651Z" fill="white"/>
<path d="M103.759 19.9179H104.662V17.4319C104.662 16.787 105.074 16.3531 105.813 16.3531C106.452 16.3531 106.792 16.6971 106.792 17.3772V19.9179H107.695V17.17C107.695 16.1577 107.095 15.5831 106.12 15.5831C105.431 15.5831 104.948 15.8684 104.725 16.3453H104.654V14H103.759V19.9179Z" fill="white"/>
<path d="M110.954 16.2945C111.622 16.2945 112.059 16.7283 112.08 17.3967H109.769C109.82 16.7322 110.286 16.2945 110.954 16.2945ZM112.076 18.7687C111.908 19.101 111.534 19.2847 110.988 19.2847C110.265 19.2847 109.799 18.8117 109.769 18.0651V18.0182H113V17.7251C113 16.3883 112.231 15.5792 110.958 15.5792C109.668 15.5792 108.849 16.443 108.849 17.8033C108.849 19.1635 109.652 20 110.962 20C112.008 20 112.74 19.5309 112.945 18.7687H112.076Z" fill="white"/>
<path d="M93.1607 24.2707V26.311H91.6305V27.6489H93.1607V32.1951C93.1607 33.7475 94.001 34.3684 96.115 34.3684C96.4865 34.3684 96.8403 34.3314 97.1499 34.2871V32.9639C96.8845 32.9861 96.7164 33.0009 96.4245 33.0009C95.4781 33.0009 95.0624 32.6312 95.0624 31.7885V27.6489H97.1499V26.311H95.0624V24.2707H93.1607Z" fill="white"/>
<path d="M102.535 34.4793C105.348 34.4793 107.073 32.9048 107.073 30.2953C107.073 27.7007 105.339 26.1188 102.535 26.1188C99.7224 26.1188 97.9887 27.7007 97.9887 30.2953C97.9887 32.9048 99.7135 34.4793 102.535 34.4793ZM102.535 33.0674C100.881 33.0674 99.9524 32.0547 99.9524 30.2953C99.9524 28.5508 100.881 27.5307 102.535 27.5307C104.18 27.5307 105.118 28.5508 105.118 30.2953C105.118 32.0473 104.18 33.0674 102.535 33.0674Z" fill="white"/>
<path d="M108.548 34.324H110.45V29.5709C110.45 28.4399 111.467 27.6785 112.909 27.6785C113.245 27.6785 113.811 27.7303 113.971 27.7746V26.2075C113.767 26.1631 113.404 26.1409 113.121 26.1409C111.865 26.1409 110.795 26.7175 110.521 27.5085H110.379V26.274H108.548V34.324Z" fill="white"/>
<path d="M118.692 27.4715C120.099 27.4715 121.019 28.2921 121.063 29.5561H116.198C116.304 28.2995 117.286 27.4715 118.692 27.4715ZM121.054 32.1508C120.7 32.7791 119.913 33.1265 118.763 33.1265C117.242 33.1265 116.26 32.2321 116.198 30.8202V30.7315H123V30.1771C123 27.6489 121.381 26.1188 118.701 26.1188C115.986 26.1188 114.261 27.7524 114.261 30.3249C114.261 32.8974 115.95 34.4793 118.71 34.4793C120.913 34.4793 122.452 33.5922 122.885 32.1508H121.054Z" fill="white"/>
<path d="M80.6896 31.3513C80.8362 33.328 82.8073 34.5922 85.741 34.5922C88.8764 34.5922 90.8383 33.2667 90.8383 31.1521C90.8383 29.4895 89.7198 28.5701 87.0061 28.0414L85.5485 27.7426C83.8249 27.4055 83.1282 26.9535 83.1282 26.1643C83.1282 25.1683 84.21 24.517 85.8327 24.517C87.3729 24.517 88.4363 25.1529 88.6288 26.172H90.6274C90.5082 24.3102 88.5463 23 85.8602 23C82.9723 23 81.0471 24.3102 81.0471 26.2792C81.0471 27.9035 82.1381 28.8689 84.5308 29.3363L86.236 29.681C87.9871 30.0258 88.7572 30.5315 88.7572 31.3743C88.7572 32.355 87.547 33.0675 85.8968 33.0675C84.1275 33.0675 82.899 32.4009 82.7248 31.3513H80.6896Z" fill="white"/>
<path d="M60.9898 26.1409C59.6807 26.1409 58.5485 26.688 57.9648 27.6046H57.8232V26.274H55.9923V37H57.894V33.1043H58.0444C58.5485 33.9544 59.6365 34.4571 61.0075 34.4571C63.4399 34.4571 64.9878 32.853 64.9878 30.2953C64.9878 27.7376 63.4399 26.1409 60.9898 26.1409ZM60.4503 33.0304C58.8581 33.0304 57.8586 31.9807 57.8586 30.3027C57.8586 28.6173 58.8581 27.5676 60.4591 27.5676C62.0689 27.5676 63.033 28.5951 63.033 30.2953C63.033 32.0029 62.0689 33.0304 60.4503 33.0304Z" fill="white"/>
<path d="M71.6422 26.1409C70.3331 26.1409 69.2009 26.688 68.6172 27.6046H68.4756V26.274H66.6447V37H68.5464V33.1043H68.6968C69.2009 33.9544 70.2889 34.4571 71.6599 34.4571C74.0923 34.4571 75.6402 32.853 75.6402 30.2953C75.6402 27.7376 74.0923 26.1409 71.6422 26.1409ZM71.1026 33.0304C69.5105 33.0304 68.511 31.9807 68.511 30.3027C68.511 28.6173 69.5105 27.5676 71.1115 27.5676C72.7213 27.5676 73.6854 28.5951 73.6854 30.2953C73.6854 32.0029 72.7213 33.0304 71.1026 33.0304Z" fill="white"/>
<path d="M52.5803 34.324H54.7622L49.9858 23.2682H47.7764L43 34.324H45.1086L46.3279 31.3896H51.3702L52.5803 34.324ZM48.7757 25.2755H48.9315L50.8476 29.9492H46.8505L48.7757 25.2755Z" fill="white"/>
</svg>
