<svg width="20" height="21" viewBox="0 0 20 21" fill="none" xmlns="http://www.w3.org/2000/svg">
<path opacity="0.9" d="M10.002 20.5C15.5248 20.5 20.002 16.0228 20.002 10.5C20.002 4.97715 15.5248 0.5 10.002 0.5C4.47911 0.5 0.00195312 4.97715 0.00195312 10.5C0.00195312 16.0228 4.47911 20.5 10.002 20.5Z" fill="#27273D"/>
<path opacity="0.9" d="M19.3824 7.02812H0.621094C2.0332 3.21641 5.69961 0.5 10.002 0.5C14.3043 0.5 17.9707 3.21641 19.3824 7.02812Z" fill="#ED5F60"/>
<path opacity="0.9" d="M19.3819 13.9707H0.6206C-0.206867 11.7302 -0.206867 9.26784 0.6206 7.02734H19.3819C19.5211 7.40288 19.6373 7.78653 19.73 8.17617C20.1864 10.0999 20.0653 12.1155 19.3819 13.9707Z" fill="white"/>
<path opacity="0.9" d="M10.002 20.5012C7.95872 20.5012 5.96447 19.8756 4.2874 18.7085C2.61033 17.5413 1.33087 15.8886 0.621094 13.9727H19.3824C19.2371 14.3661 19.0669 14.7498 18.8727 15.1215C18.0275 16.7437 16.7536 18.1031 15.1895 19.0517C13.6254 20.0002 11.8312 20.5016 10.002 20.5012Z" fill="#43A047"/>
<path opacity="0.9" d="M11.3105 0.584766C7.58476 1.07188 4.5043 3.60938 3.23828 7.03008H0.621094C2.0332 3.21641 5.69961 0.5 10.002 0.5C10.4395 0.499933 10.8766 0.528247 11.3105 0.584766Z" fill="#ED5F60"/>
<path opacity="0.9" d="M2.61865 10.4992C2.61727 11.684 2.82693 12.8595 3.23779 13.9707H0.6206C-0.206867 11.7302 -0.206867 9.26784 0.6206 7.02734H3.23779C3.09939 7.40293 2.98394 7.78658 2.89209 8.17617C2.71043 8.93717 2.61866 9.71684 2.61865 10.4992Z" fill="white"/>
<path opacity="0.9" d="M11.3105 20.4164C10.8766 20.4729 10.4395 20.5013 10.002 20.5012C7.95872 20.5012 5.96447 19.8756 4.2874 18.7085C2.61033 17.5413 1.33087 15.8886 0.621094 13.9727H3.23828C3.8703 15.6796 4.95596 17.1818 6.37837 18.3175C7.80078 19.4533 9.50604 20.1795 11.3105 20.418V20.4164Z" fill="#43A047"/>
<path opacity="0.9" d="M15.9406 4.90469C16.2918 4.90469 16.5766 4.61997 16.5766 4.26875C16.5766 3.91753 16.2918 3.63281 15.9406 3.63281C15.5894 3.63281 15.3047 3.91753 15.3047 4.26875C15.3047 4.61997 15.5894 4.90469 15.9406 4.90469Z" fill="white"/>
<path opacity="0.9" d="M15.0051 3.77969C15.2538 3.77969 15.4555 3.57804 15.4555 3.3293C15.4555 3.08055 15.2538 2.87891 15.0051 2.87891C14.7563 2.87891 14.5547 3.08055 14.5547 3.3293C14.5547 3.57804 14.7563 3.77969 15.0051 3.77969Z" fill="white"/>
<path opacity="0.9" d="M10.0023 13.618C11.7252 13.618 13.1219 12.2213 13.1219 10.4984C13.1219 8.77557 11.7252 7.37891 10.0023 7.37891C8.27947 7.37891 6.88281 8.77557 6.88281 10.4984C6.88281 12.2213 8.27947 13.618 10.0023 13.618Z" fill="#495F6A"/>
<path opacity="0.9" d="M12.4566 10.2445L12.3109 10.2121C12.3109 10.2004 12.3082 10.1887 12.3066 10.1773L12.4387 10.1078C12.461 10.0963 12.4788 10.0774 12.4889 10.0544C12.4991 10.0314 12.5011 10.0056 12.4945 9.98125L12.4191 9.69922C12.4126 9.67489 12.398 9.65352 12.3777 9.63861C12.3574 9.6237 12.3326 9.61615 12.3074 9.61719L12.1586 9.62344C12.1543 9.6125 12.15 9.60156 12.1453 9.59062L12.2547 9.49023C12.2733 9.47328 12.2855 9.45047 12.2894 9.4256C12.2932 9.40072 12.2884 9.37529 12.2758 9.35352L12.1297 9.10039C12.1171 9.07859 12.0975 9.06174 12.0741 9.05265C12.0506 9.04355 12.0247 9.04275 12.0008 9.05039L11.8586 9.09492C11.8516 9.08555 11.8441 9.07656 11.8371 9.06758L11.9172 8.94141C11.9307 8.92011 11.9366 8.89485 11.9338 8.86979C11.931 8.84472 11.9198 8.82135 11.902 8.80352L11.6957 8.59727C11.6779 8.57943 11.6545 8.5682 11.6294 8.56544C11.6044 8.56267 11.5791 8.56852 11.5578 8.58203L11.4316 8.6625L11.4043 8.64102L11.4488 8.49883C11.4565 8.47486 11.4557 8.449 11.4466 8.42555C11.4375 8.4021 11.4206 8.38247 11.3988 8.36992L11.1457 8.22383C11.1239 8.2112 11.0985 8.2064 11.0736 8.21024C11.0487 8.21408 11.0259 8.22632 11.009 8.24492L10.9086 8.3543L10.8758 8.34102L10.882 8.19219C10.8831 8.16702 10.8755 8.14225 10.8606 8.12194C10.8457 8.10164 10.8243 8.08701 10.8 8.08047L10.518 8.00508C10.4937 7.99863 10.468 8.00065 10.4451 8.0108C10.4221 8.02096 10.4033 8.03865 10.3918 8.06094L10.3223 8.19375L10.2875 8.18945L10.2551 8.04375C10.2497 8.01915 10.2361 7.99713 10.2165 7.98135C10.1969 7.96557 10.1724 7.95699 10.1473 7.95703H9.85508C9.8299 7.95699 9.80547 7.96557 9.78586 7.98135C9.76624 7.99713 9.75262 8.01915 9.74727 8.04375L9.71484 8.18945L9.68008 8.19375L9.61055 8.06094C9.59901 8.03857 9.58016 8.02083 9.55713 8.01066C9.5341 8.0005 9.50829 7.99853 9.48398 8.00508L9.20195 8.08047C9.17763 8.08701 9.15625 8.10164 9.14134 8.12194C9.12644 8.14225 9.11888 8.16702 9.11992 8.19219L9.12617 8.34102L9.09336 8.3543L8.99297 8.24492C8.97602 8.22632 8.95321 8.21408 8.92833 8.21024C8.90346 8.2064 8.87802 8.2112 8.85625 8.22383L8.60313 8.36992C8.58133 8.38247 8.56448 8.4021 8.55538 8.42555C8.54629 8.449 8.54549 8.47486 8.55312 8.49883L8.59766 8.64102L8.57031 8.6625L8.44453 8.58438C8.42324 8.57086 8.39798 8.56501 8.37291 8.56778C8.34785 8.57055 8.32447 8.58178 8.30664 8.59961L8.10039 8.80586C8.08256 8.82369 8.07133 8.84706 8.06856 8.87213C8.06579 8.8972 8.07164 8.92246 8.08516 8.94375L8.16523 9.06992C8.1582 9.07891 8.15078 9.08789 8.14375 9.09727L8.00156 9.05273C7.9776 9.0451 7.95174 9.0459 7.92829 9.05499C7.90484 9.06409 7.88521 9.08094 7.87266 9.10273L7.72656 9.35586C7.71393 9.37763 7.70913 9.40307 7.71297 9.42794C7.71681 9.45282 7.72905 9.47563 7.74766 9.49258L7.85703 9.59297C7.85234 9.60391 7.84805 9.61484 7.84375 9.62578L7.69492 9.61953C7.66975 9.61849 7.64498 9.62604 7.62468 9.64095C7.60437 9.65586 7.58975 9.67724 7.5832 9.70156L7.50781 9.98359C7.50185 10.0076 7.50411 10.0328 7.51424 10.0554C7.52437 10.0779 7.54178 10.0964 7.56367 10.1078L7.6957 10.177C7.6957 10.1883 7.69297 10.2 7.69141 10.2117L7.5457 10.2441C7.52111 10.2495 7.49908 10.2631 7.48331 10.2827C7.46753 10.3023 7.45894 10.3268 7.45898 10.352V10.6441C7.45894 10.6693 7.46753 10.6937 7.48331 10.7134C7.49908 10.733 7.52111 10.7466 7.5457 10.752L7.69141 10.7844C7.69141 10.7961 7.69414 10.8078 7.6957 10.8191L7.56367 10.8891C7.5413 10.9006 7.52356 10.9195 7.5134 10.9425C7.50323 10.9655 7.50126 10.9913 7.50781 11.0156L7.5832 11.2977C7.58975 11.322 7.60437 11.3434 7.62468 11.3583C7.64498 11.3732 7.66975 11.3807 7.69492 11.3797L7.84375 11.3734C7.84805 11.3844 7.85234 11.3953 7.85703 11.4062L7.74766 11.5066C7.72905 11.5236 7.71681 11.5464 7.71297 11.5713C7.70913 11.5962 7.71393 11.6216 7.72656 11.6434L7.87266 11.8965C7.88521 11.9183 7.90484 11.9351 7.92829 11.9442C7.95174 11.9533 7.9776 11.9541 8.00156 11.9465L8.14375 11.902C8.15078 11.9113 8.1582 11.9203 8.16523 11.9293L8.08711 12.0551C8.0736 12.0764 8.06774 12.1016 8.07051 12.1267C8.07328 12.1518 8.08451 12.1751 8.10234 12.193L8.30859 12.3992C8.32642 12.4171 8.3498 12.4283 8.37486 12.431C8.39993 12.4338 8.42519 12.428 8.44648 12.4145L8.57266 12.3344L8.6 12.3559L8.55547 12.498C8.54783 12.522 8.54863 12.5479 8.55773 12.5713C8.56682 12.5948 8.58367 12.6144 8.60547 12.627L8.85859 12.773C8.88036 12.7857 8.9058 12.7905 8.93068 12.7866C8.95555 12.7828 8.97836 12.7706 8.99531 12.752L9.0957 12.6426L9.12852 12.6559L9.12227 12.8047C9.12122 12.8299 9.12878 12.8546 9.14369 12.8749C9.1586 12.8952 9.17997 12.9099 9.2043 12.9164L9.48633 12.9918C9.5103 12.9978 9.53558 12.9955 9.55811 12.9854C9.58063 12.9752 9.5991 12.9578 9.61055 12.9359L9.67969 12.8039L9.71445 12.8082L9.74688 12.9539C9.75223 12.9785 9.76585 13.0005 9.78547 13.0163C9.80508 13.0321 9.82951 13.0407 9.85469 13.0406H10.1469C10.172 13.0407 10.1965 13.0321 10.2161 13.0163C10.2357 13.0005 10.2493 12.9785 10.2547 12.9539L10.2871 12.8082L10.3219 12.8039L10.3918 12.9359C10.4033 12.9583 10.4222 12.976 10.4452 12.9862C10.4682 12.9964 10.4941 12.9983 10.5184 12.9918L10.8004 12.9164C10.8247 12.9099 10.8461 12.8952 10.861 12.8749C10.8759 12.8546 10.8835 12.8299 10.8824 12.8047L10.8762 12.6559L10.909 12.6426L11.0094 12.752C11.0263 12.7706 11.0491 12.7828 11.074 12.7866C11.0989 12.7905 11.1243 12.7857 11.1461 12.773L11.3992 12.627C11.421 12.6144 11.4379 12.5948 11.447 12.5713C11.4561 12.5479 11.4569 12.522 11.4492 12.498L11.4047 12.3559L11.432 12.3344L11.5582 12.4145C11.5795 12.428 11.6048 12.4338 11.6298 12.431C11.6549 12.4283 11.6783 12.4171 11.6961 12.3992L11.9023 12.193C11.9202 12.1751 11.9314 12.1518 11.9342 12.1267C11.9369 12.1016 11.9311 12.0764 11.9176 12.0551L11.8371 11.9289C11.8441 11.9199 11.8516 11.9109 11.8586 11.9016L12.0008 11.9461C12.0247 11.9537 12.0506 11.9529 12.0741 11.9438C12.0975 11.9347 12.1171 11.9179 12.1297 11.8961L12.2758 11.643C12.2884 11.6212 12.2932 11.5958 12.2894 11.5709C12.2855 11.546 12.2733 11.5232 12.2547 11.5062L12.1453 11.4059C12.15 11.3949 12.1543 11.384 12.1586 11.373L12.3074 11.3793C12.3326 11.3803 12.3574 11.3728 12.3777 11.3579C12.398 11.343 12.4126 11.3216 12.4191 11.2973L12.4945 11.0152C12.501 10.991 12.499 10.9653 12.4888 10.9423C12.4786 10.9194 12.461 10.9006 12.4387 10.8891L12.3059 10.8195C12.3059 10.8082 12.3086 10.7965 12.3102 10.7848L12.4559 10.7523C12.4805 10.747 12.5025 10.7334 12.5183 10.7138C12.534 10.6941 12.5426 10.6697 12.5426 10.6445V10.3523C12.5427 10.3273 12.5342 10.3029 12.5186 10.2833C12.5029 10.2637 12.4811 10.25 12.4566 10.2445Z" fill="white"/>
<path opacity="0.9" d="M10.4803 10.4988C10.481 10.5079 10.481 10.5171 10.4803 10.5262C10.4796 10.5513 10.4764 10.5763 10.4709 10.6008C10.4633 10.6363 10.4515 10.6708 10.4357 10.7035C10.4229 10.731 10.4074 10.7571 10.3896 10.7816C10.3683 10.8104 10.3436 10.8367 10.3162 10.8598C10.2986 10.8755 10.2797 10.8896 10.2596 10.902C10.229 10.9216 10.1962 10.9375 10.1619 10.9492C10.1278 10.962 10.0923 10.9702 10.0561 10.9738C10.0203 10.9785 9.98402 10.9785 9.94824 10.9738C9.91976 10.971 9.89163 10.9654 9.86425 10.957C9.8295 10.9469 9.79617 10.9325 9.76504 10.9141C9.7416 10.901 9.71938 10.8858 9.69863 10.8688C9.67033 10.846 9.645 10.8197 9.62324 10.7906C9.60346 10.7665 9.58643 10.7403 9.57246 10.7125C9.55614 10.68 9.54393 10.6456 9.53613 10.6102C9.52913 10.5828 9.52507 10.5548 9.52402 10.5266C9.52324 10.5175 9.52324 10.5083 9.52402 10.4992C9.52416 10.472 9.52651 10.4448 9.53105 10.418C9.53482 10.3936 9.54097 10.3697 9.54941 10.3465C9.56044 10.3119 9.57594 10.279 9.59551 10.2484C9.60865 10.2258 9.62409 10.2046 9.6416 10.1852C9.66532 10.1576 9.6922 10.133 9.72168 10.1117C9.77774 10.071 9.84177 10.0427 9.90957 10.0285C9.92324 10.0262 9.93613 10.0242 9.94863 10.0227C9.96113 10.0211 9.98418 10.0195 10.0025 10.0195C10.0209 10.0195 10.0389 10.0195 10.0564 10.0227C10.078 10.0246 10.0993 10.0285 10.1201 10.0344C10.1555 10.0429 10.1897 10.0561 10.2217 10.0734C10.2479 10.0865 10.2726 10.1024 10.2955 10.1207C10.3248 10.1422 10.3511 10.1676 10.3736 10.1961C10.39 10.2148 10.4044 10.235 10.4166 10.2566C10.4352 10.2877 10.45 10.3209 10.4607 10.3555C10.4675 10.376 10.4726 10.397 10.476 10.4184C10.4796 10.445 10.481 10.4719 10.4803 10.4988Z" fill="#495F6A"/>
<path opacity="0.9" d="M10.4803 10.4988C10.481 10.5079 10.481 10.5171 10.4803 10.5262C10.4796 10.5513 10.4764 10.5763 10.4709 10.6008C10.4633 10.6363 10.4515 10.6708 10.4357 10.7035C10.4229 10.731 10.4074 10.7571 10.3896 10.7816C10.3683 10.8104 10.3436 10.8367 10.3162 10.8598C10.2986 10.8755 10.2797 10.8896 10.2596 10.902C10.229 10.9216 10.1962 10.9375 10.1619 10.9492C10.1278 10.962 10.0923 10.9702 10.0561 10.9738C10.0203 10.9785 9.98402 10.9785 9.94824 10.9738C9.91976 10.971 9.89163 10.9654 9.86425 10.957C9.8295 10.9469 9.79617 10.9325 9.76504 10.9141C9.7416 10.901 9.71938 10.8858 9.69863 10.8688C9.67033 10.846 9.645 10.8197 9.62324 10.7906C9.60346 10.7665 9.58643 10.7403 9.57246 10.7125C9.55614 10.68 9.54393 10.6456 9.53613 10.6102C9.52913 10.5828 9.52507 10.5548 9.52402 10.5266C9.52324 10.5175 9.52324 10.5083 9.52402 10.4992C9.52416 10.472 9.52651 10.4448 9.53105 10.418C9.53482 10.3936 9.54097 10.3697 9.54941 10.3465C9.56044 10.3119 9.57594 10.279 9.59551 10.2484C9.60865 10.2258 9.62409 10.2046 9.6416 10.1852C9.66532 10.1576 9.6922 10.133 9.72168 10.1117C9.77774 10.071 9.84177 10.0427 9.90957 10.0285C9.92324 10.0262 9.93613 10.0242 9.94863 10.0227C9.96113 10.0211 9.98418 10.0195 10.0025 10.0195C10.0209 10.0195 10.0389 10.0195 10.0564 10.0227C10.078 10.0246 10.0993 10.0285 10.1201 10.0344C10.1555 10.0429 10.1897 10.0561 10.2217 10.0734C10.2479 10.0865 10.2726 10.1024 10.2955 10.1207C10.3248 10.1422 10.3511 10.1676 10.3736 10.1961C10.39 10.2148 10.4044 10.235 10.4166 10.2566C10.4352 10.2877 10.45 10.3209 10.4607 10.3555C10.4675 10.376 10.4726 10.397 10.476 10.4184C10.4796 10.445 10.481 10.4719 10.4803 10.4988Z" fill="#495F6A"/>
<path opacity="0.9" d="M9.33711 10.5266H7.99766C7.98326 10.5266 7.96945 10.5208 7.95926 10.5107C7.94908 10.5005 7.94336 10.4867 7.94336 10.4723C7.94336 10.4579 7.94908 10.4441 7.95926 10.4339C7.96945 10.4237 7.98326 10.418 7.99766 10.418H9.34023C9.33761 10.445 9.33657 10.4721 9.33711 10.4992V10.5266Z" fill="#495F6A"/>
<path opacity="0.9" d="M9.39775 10.7809L8.1622 11.2789C8.15585 11.2814 8.1491 11.2827 8.14228 11.2828C8.12966 11.2828 8.11742 11.2785 8.10768 11.2704C8.09793 11.2624 8.09129 11.2512 8.08888 11.2389C8.08648 11.2265 8.08847 11.2136 8.09451 11.2025C8.10054 11.1915 8.11025 11.1828 8.12197 11.1781L9.36025 10.6797C9.37005 10.7144 9.38259 10.7482 9.39775 10.7809Z" fill="#495F6A"/>
<path opacity="0.9" d="M8.11706 9.71349C8.12261 9.70025 8.1331 9.6897 8.1463 9.68408C8.15951 9.67847 8.17438 9.67822 8.18776 9.68341L9.41823 10.1791C9.40043 10.2107 9.3854 10.2438 9.37331 10.2779L8.14753 9.78419C8.13416 9.7788 8.12345 9.76835 8.11775 9.75511C8.11204 9.74187 8.11179 9.72691 8.11706 9.71349Z" fill="#495F6A"/>
<path opacity="0.9" d="M9.56563 11.0035L8.61329 11.9551C8.60821 11.9603 8.60213 11.9644 8.59542 11.9672C8.58871 11.9701 8.58151 11.9715 8.57423 11.9715C8.56346 11.9715 8.55293 11.9683 8.54395 11.9623C8.53498 11.9564 8.52797 11.9479 8.5238 11.938C8.51963 11.9281 8.51848 11.9171 8.5205 11.9065C8.52252 11.896 8.52763 11.8862 8.53516 11.8785L9.4879 10.9258C9.51157 10.9538 9.53757 10.9798 9.56563 11.0035Z" fill="#495F6A"/>
<path opacity="0.9" d="M8.556 9.10154C8.55065 9.09653 8.54639 9.09048 8.54348 9.08376C8.54057 9.07704 8.53906 9.0698 8.53906 9.06247C8.53906 9.05515 8.54057 9.0479 8.54348 9.04118C8.54639 9.03447 8.55065 9.02842 8.556 9.02341C8.56616 9.01341 8.57983 9.00781 8.59408 9.00781C8.60834 9.00781 8.62201 9.01341 8.63217 9.02341L9.58608 9.97732C9.55811 9.99994 9.53198 10.0248 9.50795 10.0515L8.556 9.10154Z" fill="#495F6A"/>
<path opacity="0.9" d="M9.69492 11.0898C9.72672 11.107 9.76007 11.1211 9.79453 11.132L9.30391 12.35C9.29974 12.36 9.2927 12.3686 9.28366 12.3747C9.27463 12.3807 9.264 12.384 9.25313 12.384C9.24619 12.3838 9.23933 12.3825 9.23281 12.3801C9.21955 12.3745 9.20902 12.3639 9.20347 12.3506C9.19792 12.3373 9.1978 12.3224 9.20313 12.309L9.69492 11.0898Z" fill="#495F6A"/>
<path opacity="0.9" d="M9.22836 8.63273C9.225 8.62603 9.22308 8.6187 9.22272 8.61121C9.22236 8.60372 9.22356 8.59624 9.22625 8.58925C9.22894 8.58225 9.23306 8.57589 9.23834 8.57058C9.24363 8.56526 9.24997 8.56111 9.25695 8.55838C9.26393 8.55566 9.2714 8.55441 9.27889 8.55474C9.28638 8.55506 9.29372 8.55694 9.30044 8.56026C9.30716 8.56358 9.31311 8.56827 9.31792 8.57402C9.32273 8.57977 9.32628 8.58646 9.32836 8.59367L9.83617 9.85499C9.80107 9.86378 9.76682 9.87568 9.73383 9.89054L9.22836 8.63273Z" fill="#495F6A"/>
<path opacity="0.9" d="M10.0012 9.83477C9.98281 9.83477 9.96484 9.83477 9.94727 9.83672V8.49531C9.94727 8.48102 9.95294 8.4673 9.96305 8.45719C9.97316 8.44709 9.98688 8.44141 10.0012 8.44141C10.0155 8.44141 10.0292 8.44709 10.0393 8.45719C10.0494 8.4673 10.0551 8.48102 10.0551 8.49531V9.83477C10.0375 9.83477 10.0195 9.83477 10.0012 9.83477Z" fill="#495F6A"/>
<path opacity="0.9" d="M10.0012 11.166C10.0195 11.166 10.0375 11.166 10.0551 11.1641V12.5035C10.0551 12.5178 10.0494 12.5315 10.0393 12.5416C10.0292 12.5517 10.0155 12.5574 10.0012 12.5574C9.98688 12.5574 9.97316 12.5517 9.96305 12.5416C9.95294 12.5315 9.94727 12.5178 9.94727 12.5035V11.1641C9.96484 11.1641 9.98281 11.166 10.0012 11.166Z" fill="#495F6A"/>
<path opacity="0.9" d="M10.2906 9.90059C10.258 9.88492 10.2242 9.87186 10.1895 9.86153L10.7 8.59434C10.702 8.58705 10.7056 8.58026 10.7104 8.57442C10.7152 8.56858 10.7212 8.56382 10.728 8.56043C10.7348 8.55704 10.7422 8.5551 10.7497 8.55475C10.7573 8.55439 10.7648 8.55562 10.7719 8.55836C10.779 8.56109 10.7854 8.56528 10.7907 8.57064C10.7961 8.576 10.8002 8.58242 10.803 8.58949C10.8057 8.59655 10.8069 8.60411 10.8065 8.61167C10.8061 8.61924 10.8042 8.62664 10.8008 8.6334L10.2906 9.90059Z" fill="#495F6A"/>
<path opacity="0.9" d="M10.8266 12.3082C10.8293 12.3148 10.8307 12.322 10.8306 12.3291C10.8306 12.3363 10.8292 12.3434 10.8264 12.35C10.8236 12.3566 10.8195 12.3626 10.8144 12.3677C10.8092 12.3727 10.8032 12.3766 10.7965 12.3793C10.79 12.3818 10.7831 12.3831 10.7762 12.3832C10.7654 12.3831 10.7549 12.3799 10.746 12.3738C10.7371 12.3678 10.7302 12.3592 10.7262 12.3492L10.2324 11.1234C10.2664 11.1112 10.2992 11.096 10.3305 11.0781L10.8266 12.3082Z" fill="#495F6A"/>
<path opacity="0.9" d="M10.4277 9.98581L11.3707 9.04284C11.3811 9.03274 11.395 9.02716 11.4095 9.02735C11.4239 9.02753 11.4378 9.03345 11.4479 9.04381C11.458 9.05417 11.4635 9.06812 11.4633 9.08259C11.4632 9.09706 11.4572 9.11086 11.4469 9.12096L10.5047 10.0635C10.4813 10.0355 10.4555 10.0095 10.4277 9.98581Z" fill="#495F6A"/>
<path opacity="0.9" d="M11.4672 11.8598C11.4775 11.8701 11.4834 11.8842 11.4834 11.8988C11.4834 11.9135 11.4775 11.9275 11.4672 11.9379C11.4568 11.9483 11.4428 11.9541 11.4281 11.9541C11.4135 11.9541 11.3994 11.9483 11.3891 11.9379L10.4473 10.9961C10.474 10.9721 10.4989 10.9459 10.5215 10.918L11.4672 11.8598Z" fill="#495F6A"/>
<path opacity="0.9" d="M10.5859 10.186L11.8359 9.6817C11.8489 9.67806 11.8628 9.67939 11.8749 9.68543C11.8869 9.69147 11.8963 9.70178 11.9012 9.71436C11.9061 9.72694 11.9061 9.74089 11.9013 9.75348C11.8964 9.76608 11.8871 9.77641 11.875 9.78248L10.625 10.2856C10.6151 10.2513 10.602 10.2179 10.5859 10.186Z" fill="#495F6A"/>
<path opacity="0.9" d="M11.9344 11.2516C11.9303 11.2615 11.9233 11.27 11.9145 11.276C11.9056 11.2821 11.8951 11.2854 11.8844 11.2855C11.8773 11.2854 11.8703 11.2841 11.8637 11.2816L10.6074 10.7738C10.6221 10.7408 10.6343 10.7067 10.6437 10.6719L11.9047 11.1797C11.9114 11.1824 11.9175 11.1865 11.9226 11.1916C11.9277 11.1967 11.9318 11.2027 11.9345 11.2094C11.9373 11.2161 11.9387 11.2233 11.9387 11.2305C11.9386 11.2377 11.9372 11.2449 11.9344 11.2516Z" fill="#495F6A"/>
<path opacity="0.9" d="M12.0594 10.4719C12.0594 10.4864 12.0536 10.5003 12.0434 10.5106C12.0331 10.5209 12.0192 10.5266 12.0047 10.5266H10.6652C10.6652 10.5176 10.6652 10.5083 10.6652 10.4993C10.6651 10.4721 10.6634 10.445 10.6602 10.418H12.0027C12.01 10.4177 12.0173 10.4189 12.0241 10.4214C12.031 10.424 12.0372 10.4279 12.0425 10.4329C12.0478 10.438 12.052 10.444 12.0549 10.4507C12.0578 10.4574 12.0593 10.4646 12.0594 10.4719Z" fill="#495F6A"/>
</svg>
